<?xml version="1.0" encoding="UTF-8" standalone="no"?>
<!-- Created with Inkscape (http://www.inkscape.org/) -->

<svg
      width="100%"
   height="100%"
   viewBox="0 0 137.91936 157.91344"
   version="1.1"
   id="svg1"
   xml:space="preserve"
   xmlns="http://www.w3.org/2000/svg"
   xmlns:svg="http://www.w3.org/2000/svg">
   <defs
     id="defs1" /><g
     id="layer1"
     transform="translate(-35.48344,-65.874146)"><path
       style="display:inline;fill:#080f29"
       d="m 100.26357,223.65465 c -8.608046,-0.974 -21.358665,-4.83723 -33.121961,-10.0354 -8.316167,-3.6749 -20.164467,-10.20003 -28.045794,-15.44547 -2.77057,-1.84396 -3.352855,-2.46516 -3.567191,-3.80554 -0.116719,-0.72992 -0.02902,-1.10363 0.521286,-2.22147 1.171744,-2.38015 3.753588,-4.46535 10.153647,-8.20049 4.102329,-2.39416 4.81806,-2.74213 5.351844,-2.60194 0.247667,0.0651 1.399747,0.89336 2.560177,1.84069 7.254382,5.9222 13.350047,9.9323 20.043785,13.18603 3.610311,1.75492 5.184497,2.35303 4.536225,1.72354 -0.174065,-0.16902 -1.930533,-1.62556 -3.903264,-3.23675 -20.378555,-16.64379 -30.045847,-29.07975 -33.055146,-42.52199 -0.418211,-1.86811 -0.49182,-2.7811 -0.49182,-6.10018 0,-4.4176 0.314895,-6.30159 1.773186,-10.60881 3.223419,-9.52071 11.09083,-23.68779 20.343911,-36.633881 8.915061,-12.47316 18.575845,-22.606879 26.620948,-27.924153 2.570631,-1.699014 6.021645,-3.404739 8.705284,-4.302741 6.986723,-2.337905 14.484273,-0.108138 23.614213,7.022851 8.68264,6.781624 17.81871,17.214429 26.76664,30.565774 10.09804,15.06745 16.69181,28.47778 18.24586,37.10824 1.56086,8.66829 -1.13102,17.93462 -8.18432,28.17314 -5.37665,7.80472 -14.12973,16.45885 -27.74448,27.43084 -0.7806,0.62908 -1.37433,1.18872 -1.31941,1.24364 0.16796,0.16796 1.97271,-0.5837 4.9844,-2.07593 6.18605,-3.06507 12.08245,-6.91289 18.40582,-12.01108 3.14213,-2.53333 3.74253,-2.96401 4.13207,-2.96401 0.3995,0 7.54133,4.09756 10.02988,5.75456 2.65642,1.76877 3.83057,2.80702 4.8259,4.26733 0.72568,1.06469 0.87537,1.46716 0.94169,2.53185 0.11296,1.81329 -0.29846,2.30207 -3.86137,4.58747 -12.35867,7.92736 -23.90898,13.96819 -34.70739,18.15201 -8.61028,3.33603 -17.24298,5.81945 -23.63057,6.79794 -2.68786,0.41175 -8.53377,0.57439 -10.92405,0.30393 z m 6.52363,-13.01512 c 4.43057,-5.07364 10.21906,-10.60266 21.48144,-20.51851 12.11768,-10.66888 15.32129,-13.68407 19.05301,-17.93237 6.33056,-7.20689 9.80446,-13.26681 11.2689,-19.65761 0.25217,-1.10049 0.35332,-2.49376 0.34979,-4.81845 -0.004,-2.8517 -0.0749,-3.5275 -0.55166,-5.27968 -2.18059,-8.01457 -8.70516,-16.86585 -18.29581,-24.82022 -9.28992,-7.70494 -21.17834,-13.79067 -30.48766,-15.60675 -3.03445,-0.59196 -7.96998,-0.51226 -11.182318,0.18058 -13.712183,2.95747 -30.327834,13.55097 -40.04282,25.52976 -5.911607,7.28915 -8.833423,14.50485 -8.52417,21.05125 0.191998,4.06429 1.100373,7.23602 3.325381,11.61108 4.129146,8.11921 9.886729,14.38127 27.630074,30.05103 10.275072,9.07426 16.85812,15.37834 21.214093,20.31508 1.15175,1.30532 2.20722,2.37344 2.34548,2.37361 0.13826,1.6e-4 1.22558,-1.11529 2.41627,-2.4788 z m -3.68169,-37.23924 c -1.22735,-1.74054 -2.46118,-3.90641 -3.335343,-5.8549 -0.635997,-1.41762 -0.709952,-1.78014 -0.710177,-3.48129 -2.19e-4,-1.6587 0.07238,-2.0371 0.574009,-2.99163 0.315843,-0.60102 0.686361,-1.16204 0.823371,-1.24671 0.15215,-0.094 0.50135,0.16704 0.89716,0.67077 0.83523,1.06296 2.24243,2.37817 2.70172,2.52512 0.58956,0.18862 1.52469,-0.44341 2.89699,-1.95799 l 1.29594,-1.43029 0.41186,0.52747 c 0.64698,0.82858 1.26065,2.66251 1.26065,3.76739 0,1.91472 -0.99687,4.35972 -3.27413,8.03034 -1.25437,2.02187 -1.87362,2.76039 -2.31459,2.76039 -0.16368,0 -0.71604,-0.5934 -1.22746,-1.31867 z m -23.249493,-9.42848 c -2.606256,-0.42538 -5.200559,-1.37045 -6.939887,-2.52811 -6.242022,-4.15455 -9.177164,-11.93883 -7.297468,-19.35358 0.48956,-1.93114 2.171585,-5.55985 2.577174,-5.55985 0.522583,0 5.98439,4.35101 5.926257,4.721 -0.0205,0.13046 -0.304974,0.94928 -0.632168,1.81961 -0.795097,2.11492 -0.825138,5.10438 -0.07103,7.06807 1.184392,3.08414 3.417981,5.05743 6.688891,5.9094 3.845573,1.00164 7.805571,-0.67004 10.125149,-4.27425 0.392081,-0.60923 0.78422,-1.10768 0.87142,-1.10768 0.189377,0 5.023646,3.92038 5.213933,4.22827 0.265535,0.42964 -0.863292,2.23114 -2.419299,3.86098 -3.289527,3.4456 -6.677216,5.04474 -11.209732,5.2915 -0.978068,0.0533 -2.253027,0.0193 -2.833242,-0.0754 z m 44.526513,-0.0238 c -2.00314,-0.31275 -3.45824,-0.802 -5.49388,-1.8472 -1.51775,-0.77929 -2.28163,-1.35768 -3.80579,-2.88166 -1.85337,-1.85314 -3.17833,-3.80631 -2.88119,-4.24724 0.18465,-0.274 4.16611,-3.47676 4.95292,-3.98422 0.32274,-0.20816 0.61742,-0.34187 0.65484,-0.29714 0.0374,0.0447 0.40118,0.60868 0.80833,1.25321 1.95164,3.08947 6.1953,4.96755 9.60741,4.25185 4.91732,-1.03142 8.47603,-6.02613 7.65577,-10.74501 -0.13674,-0.78667 -0.47927,-2.00743 -0.76118,-2.71279 -0.28191,-0.70536 -0.51256,-1.38327 -0.51256,-1.50647 0,-0.20476 5.26046,-4.50562 5.70479,-4.66414 0.2971,-0.106 1.40483,1.77564 2.08754,3.54597 0.90034,2.33467 1.35415,5.01333 1.21673,7.18184 -0.49465,7.80528 -5.57427,14.25305 -12.78315,16.22616 -1.86099,0.50937 -4.71322,0.6981 -6.45058,0.42684 z m -22.68934,-8.69358 c -4.889596,-5.09247 -8.304869,-7.6285 -21.879361,-16.24662 -7.422596,-4.71243 -10.850231,-7.42446 -12.493355,-9.88506 -1.36673,-2.04669 -1.358305,-3.18733 0.02884,-3.90465 0.915852,-0.4736 2.733341,-0.28246 6.107581,0.64231 4.090322,1.12104 6.403199,2.043 11.680637,4.65619 6.983926,3.45817 12.240888,7.02635 17.221028,11.68885 1.00419,0.94014 1.89543,1.70935 1.98053,1.70935 0.0851,0 0.8648,-0.64088 1.73266,-1.42417 5.29409,-4.77818 9.01237,-7.42889 14.98951,-10.68582 6.54165,-3.56453 14.57132,-6.50073 18.60756,-6.80419 2.61,-0.19623 3.57388,1.14566 2.39651,3.33637 -1.41405,2.63112 -5.25499,5.71116 -14.15355,11.34971 -7.11542,4.50868 -12.54038,8.18974 -15.04283,10.20719 -1.22206,0.98521 -3.61974,3.22359 -5.32818,4.97417 -1.70844,1.75058 -3.12965,3.17168 -3.15825,3.158 -0.0286,-0.0137 -1.23879,-1.26092 -2.68933,-2.77163 z"
       id="path1" /></g></svg>
